<svg height="478" width="720" xmlns="http://www.w3.org/2000/svg">
<rect height="478" fill="#555" width="720"></rect>
<text fill="#7f7" font-family="Courier New" font-size="12" xml:space="preserve">
<tspan x="10" y="26">├─┬ active-x-obfuscator@0.0.1 </tspan>
<tspan x="10" y="42">│ └── zeparser@0.0.5 </tspan>
<tspan x="10" y="58">├── backbone@0.9.10 </tspan>
<tspan x="10" y="74">├─┬ backbone-callbacks@0.1.7 </tspan>
<tspan x="10" y="90">│ └── underscore@1.4.4 </tspan>
<tspan x="10" y="106">├── base64id@0.1.0 </tspan>
<tspan x="10" y="122">├── commander@2.1.0 </tspan>
<tspan x="10" y="138">├── config@0.4.37 </tspan>
<tspan x="10" y="154">├─┬ connect@1.7.3 </tspan>
<tspan x="10" y="170">│ ├── mime@1.3.4 </tspan>
<tspan x="10" y="186">│ └── qs@6.4.0 </tspan>
<tspan x="10" y="202">└─┬ core-monitor@0.6.3 </tspan>
<tspan x="10" y="218">  ├─┬ monitor@0.6.10 </tspan>
<tspan x="10" y="234">  │ ├── backbone@0.9.9 </tspan>
<tspan x="10" y="250">  │ ├─┬ cron@0.1.3 </tspan>
<tspan x="10" y="266">  │ │ └── nodeunit@0.5.2 </tspan>
<tspan x="10" y="282">  │ ├─┬ socket.io@0.9.17 </tspan>
<tspan x="10" y="298">  │ │ ├── policyfile@0.0.4 </tspan>
<tspan x="10" y="314">  │ │ ├── redis@0.7.3 </tspan>
<tspan x="10" y="330">  │ │ └── socket.io-client@0.9.16 </tspan>
<tspan x="10" y="346">  │ └─┬ socket.io-client@0.9.17 </tspan>
<tspan x="10" y="362">  │   ├── uglify-js@1.2.5 </tspan>
<tspan x="10" y="378">  │   ├─┬ ws@0.4.32 </tspan>
<tspan x="10" y="394">  │   │ ├── nan@1.0.0 </tspan>
<tspan x="10" y="410">  │   │ ├── options@0.0.6 </tspan>
<tspan x="10" y="426">  │   │ └── tinycolor@0.0.1 </tspan>
<tspan x="10" y="442">  │   └── xmlhttprequest@1.4.2 </tspan>
<tspan x="10" y="458">  └── monitor-dashboard@0.6.7</tspan>
</text>
</svg>
